# xmcd
#
# Track frame offsets:
#	150
#	16483
#	45563
#	79689
#	94694
#	112751
#	133033
#	146904
#	162538
#	176773
#	196904
#	216728
#	235041
#	251373
#	264325
#	280184
#
# Disc length: 3929 seconds
# Revision: 0
# Processed by: cddbd v1.5.2PL0 Copyright (c) Steve Scherf et al.
# Submitted via: dBpowerAMP V12.0
#
DISCID=e10f5710
DTITLE=Various Artist - Blues Harp Women - CD 2
DYEAR=2015
DGENRE=Blues
TTITLE0=Jenny Kerr  - Cash Is King
TTITLE1=Cheryl Arena - Blues Got Me
TTITLE2=Annie Raines - Lookin' Good
TTITLE3=Marion Turner - He's Gone
TTITLE4=Terry Leonino - Meet Me Where They Play The Blues
TTITLE5=Dana Dixon - Crazy Maisie
TTITLE6=Beata Kossowska - Everybody's Dancing
TTITLE7=Jill Fromewick - Take The Lead
TTITLE8=Diana Redlin - Never Leave Me Home
TTITLE9=Christelle Berthon - Summertime
TTITLE10=Judy Rudin - Hit The Road
TTITLE11=Cecilia Loforti - Doctor  C
TTITLE12=Maria Coyote - Rikers Island
TTITLE13=Jackie Merritt - Fast Food Mama
TTITLE14=Big Nancy - Bring It On Home (To Me)
TTITLE15=Rhonda Rucker - Rhonda Alla Blue
EXTD=
EXTT0=
EXTT1=
EXTT2=
EXTT3=
EXTT4=
EXTT5=
EXTT6=
EXTT7=
EXTT8=
EXTT9=
EXTT10=
EXTT11=
EXTT12=
EXTT13=
EXTT14=
EXTT15=
PLAYORDER=
